<svg width="40" height="40" viewBox="0 0 40 40" fill="none" xmlns="http://www.w3.org/2000/svg">
<path d="M9.16669 32.5C11.6667 30.8333 15 30 16.6667 28.3333C18.3334 26.6667 13.3334 26.6667 13.3334 18.3333C13.3334 10 20 10 20 10C20 10 26.6667 10 26.6667 18.3333C26.6667 26.6667 21.6667 26.6667 23.3334 28.3333C25 30 28.3334 30.8333 30.8334 32.5" stroke="black" stroke-width="1.5" stroke-linecap="round"/>
<path fill-rule="evenodd" clip-rule="evenodd" d="M20 36.6667C29.2047 36.6667 36.6666 29.2048 36.6666 20C36.6666 10.7953 29.2047 3.33334 20 3.33334C10.7952 3.33334 3.33331 10.7953 3.33331 20C3.33331 29.2048 10.7952 36.6667 20 36.6667Z" stroke="black" stroke-width="1.5"/>
</svg>
