<svg width="25" height="27" viewBox="0 0 25 27" fill="none" xmlns="http://www.w3.org/2000/svg">
<path d="M12.5 0.5C10.8585 0.5 9.23303 0.836255 7.71646 1.48957C6.19989 2.14288 4.8219 3.10045 3.66117 4.30761C1.31696 6.74558 0 10.0522 0 13.5C0 16.9478 1.31696 20.2544 3.66117 22.6924C4.8219 23.8995 6.19989 24.8571 7.71646 25.5104C9.23303 26.1637 10.8585 26.5 12.5 26.5C15.8152 26.5 18.9946 25.1304 21.3388 22.6924C23.683 20.2544 25 16.9478 25 13.5C25 11.7928 24.6767 10.1023 24.0485 8.52512C23.4203 6.94788 22.4996 5.51477 21.3388 4.30761C20.1781 3.10045 18.8001 2.14288 17.2835 1.48957C15.767 0.836255 14.1415 0.5 12.5 0.5ZM6.3375 21.664C6.875 20.494 10.15 19.35 12.5 19.35C14.85 19.35 18.125 20.494 18.6625 21.664C16.9625 23.068 14.825 23.9 12.5 23.9C10.175 23.9 8.0375 23.068 6.3375 21.664ZM20.45 19.779C18.6625 17.517 14.325 16.75 12.5 16.75C10.675 16.75 6.3375 17.517 4.55 19.779C3.275 18.05 2.5 15.866 2.5 13.5C2.5 7.767 6.9875 3.1 12.5 3.1C18.0125 3.1 22.5 7.767 22.5 13.5C22.5 15.866 21.725 18.05 20.45 19.779ZM12.5 5.7C10.075 5.7 8.125 7.728 8.125 10.25C8.125 12.772 10.075 14.8 12.5 14.8C14.925 14.8 16.875 12.772 16.875 10.25C16.875 7.728 14.925 5.7 12.5 5.7ZM12.5 12.2C12.0027 12.2 11.5258 11.9946 11.1742 11.6289C10.8225 11.2632 10.625 10.7672 10.625 10.25C10.625 9.73283 10.8225 9.23684 11.1742 8.87114C11.5258 8.50545 12.0027 8.3 12.5 8.3C12.9973 8.3 13.4742 8.50545 13.8258 8.87114C14.1775 9.23684 14.375 9.73283 14.375 10.25C14.375 10.7672 14.1775 11.2632 13.8258 11.6289C13.4742 11.9946 12.9973 12.2 12.5 12.2Z" fill="#8A7C79"/>
</svg>
