<svg width="39" height="39" viewBox="0 0 39 39" fill="none" xmlns="http://www.w3.org/2000/svg">
<path d="M19.5 0.5C8.77499 0.5 0 9.06526 0 19.6145C0 29.1526 7.13699 37.0693 16.458 38.5V25.1466H11.505V19.6145H16.458V15.3986C16.458 10.6104 19.3635 7.97791 23.829 7.97791C25.9545 7.97791 28.1775 8.34036 28.1775 8.34036V13.0522H25.7205C23.3025 13.0522 22.542 14.5211 22.542 16.0281V19.6145H27.963L27.0855 25.1466H22.542V38.5C27.137 37.7901 31.3213 35.4965 34.3393 32.0332C37.3574 28.57 39.0104 24.1654 39 19.6145C39 9.06526 30.225 0.5 19.5 0.5Z" fill="white"/>
</svg>
