<svg width="40" height="39" viewBox="0 0 40 39" fill="none" xmlns="http://www.w3.org/2000/svg">
<path d="M11.81 0H28.19C34.43 0 39.5 5.07 39.5 11.31V27.69C39.5 30.6896 38.3084 33.5663 36.1874 35.6874C34.0663 37.8084 31.1896 39 28.19 39H11.81C5.57 39 0.5 33.93 0.5 27.69V11.31C0.5 8.3104 1.69159 5.43366 3.81262 3.31262C5.93366 1.19159 8.8104 0 11.81 0ZM11.42 3.9C9.55818 3.9 7.77262 4.63961 6.45611 5.95611C5.13961 7.27262 4.4 9.05818 4.4 10.92V28.08C4.4 31.9605 7.5395 35.1 11.42 35.1H28.58C30.4418 35.1 32.2274 34.3604 33.5439 33.0439C34.8604 31.7274 35.6 29.9418 35.6 28.08V10.92C35.6 7.0395 32.4605 3.9 28.58 3.9H11.42ZM30.2375 6.825C30.884 6.825 31.504 7.08181 31.9611 7.53893C32.4182 7.99605 32.675 8.61604 32.675 9.2625C32.675 9.90897 32.4182 10.529 31.9611 10.9861C31.504 11.4432 30.884 11.7 30.2375 11.7C29.591 11.7 28.971 11.4432 28.5139 10.9861C28.0568 10.529 27.8 9.90897 27.8 9.2625C27.8 8.61604 28.0568 7.99605 28.5139 7.53893C28.971 7.08181 29.591 6.825 30.2375 6.825ZM20 9.75C22.5859 9.75 25.0658 10.7772 26.8943 12.6057C28.7228 14.4342 29.75 16.9141 29.75 19.5C29.75 22.0859 28.7228 24.5658 26.8943 26.3943C25.0658 28.2228 22.5859 29.25 20 29.25C17.4141 29.25 14.9342 28.2228 13.1057 26.3943C11.2772 24.5658 10.25 22.0859 10.25 19.5C10.25 16.9141 11.2772 14.4342 13.1057 12.6057C14.9342 10.7772 17.4141 9.75 20 9.75ZM20 13.65C18.4485 13.65 16.9605 14.2663 15.8634 15.3634C14.7663 16.4605 14.15 17.9485 14.15 19.5C14.15 21.0515 14.7663 22.5395 15.8634 23.6366C16.9605 24.7337 18.4485 25.35 20 25.35C21.5515 25.35 23.0395 24.7337 24.1366 23.6366C25.2337 22.5395 25.85 21.0515 25.85 19.5C25.85 17.9485 25.2337 16.4605 24.1366 15.3634C23.0395 14.2663 21.5515 13.65 20 13.65Z" fill="white"/>
</svg>
