<svg width="197" height="232" viewBox="0 0 197 232" fill="none" xmlns="http://www.w3.org/2000/svg">
<path d="M192.089 230.78H4.91052V213.048H192.089V230.78Z" fill="#B0A09B"/>
<path d="M192.089 217.637H4.91052V213.048H192.089V217.637Z" fill="#8A7C79"/>
<path d="M193.198 211.894H192.089H4.91036H3.80164V213.048V230.78V231.934H4.91036H192.089H193.198V230.78V213.048V211.894ZM192.089 230.78H4.91036V213.048H192.089V230.78Z" fill="#4D2326"/>
<path d="M194.089 213.048H2.91186C1.92902 213.048 1.13245 212.218 1.13245 211.196V206.661C1.13245 205.638 1.92902 204.809 2.91186 204.809H194.089C195.071 204.809 195.868 205.638 195.868 206.661V211.196C195.868 212.218 195.071 213.048 194.089 213.048Z" fill="#B0A09B"/>
<path d="M194.089 203.654H2.91169C1.31905 203.654 0.0235596 205.002 0.0235596 206.661V211.196C0.0235596 212.853 1.31905 214.202 2.91169 214.202H194.089C195.681 214.202 196.976 212.853 196.976 211.196V206.661C196.976 205.002 195.681 203.654 194.089 203.654ZM194.089 204.808C195.071 204.808 195.868 205.637 195.868 206.661V211.196C195.868 212.218 195.071 213.048 194.089 213.048H2.91169C1.92885 213.048 1.13228 212.218 1.13228 211.196V206.661C1.13228 205.637 1.92885 204.808 2.91169 204.808H194.089Z" fill="#4D2326"/>
<path d="M161.117 162.721H128.871H96.6249L93.7587 203.324H123.917L126.412 183.909C126.412 183.909 127.206 184.169 128.871 184.169C130.536 184.169 131.33 183.909 131.33 183.909L133.825 203.324H163.983L161.117 162.721Z" fill="#433B67"/>
<path d="M162.147 161.567H161.117H128.871H96.625H95.595L95.5195 162.637L92.6533 203.239L92.5663 204.478H93.7587H123.917H124.887L125.016 203.476L127.358 185.247C127.764 185.291 128.267 185.323 128.871 185.323C129.475 185.323 129.978 185.291 130.384 185.247L132.726 203.476L132.855 204.478H133.825H163.983H165.177L165.089 203.239L162.222 162.637L162.147 161.567ZM161.117 162.721L163.983 203.324H133.825L131.33 183.909C131.33 183.909 130.536 184.169 128.871 184.169C127.206 184.169 126.412 183.909 126.412 183.909L123.917 203.324H93.7587L96.625 162.721H128.871H161.117Z" fill="#4D2326"/>
<path d="M131.33 183.909C131.33 183.909 139.984 183.655 145.49 175.555C145.646 175.325 145.949 175.265 146.168 175.43C146.369 175.581 146.43 175.862 146.308 176.086C145.409 177.756 141.354 184.114 131.459 184.915L131.33 183.909Z" fill="#4D2326"/>
<path d="M137.425 89.5642L159.658 96.1356L164.48 163.695C164.48 163.695 163.119 164.32 160.728 165.23C143.707 171.705 125.281 173.055 107.516 169.325C102.396 168.249 97.2655 166.845 93.7587 165.083L99.9478 96.7688L116.748 89.5642H137.425Z" fill="#F0AA71"/>
<path d="M137.58 88.4098H137.425H116.749H116.53L116.327 88.4972L99.5252 95.7018L98.9071 95.9671L98.8441 96.6604L92.655 164.974L92.5829 165.772L93.2773 166.122C96.4303 167.706 101.147 169.164 107.296 170.455C113.854 171.833 120.556 172.531 127.217 172.531C138.862 172.531 150.265 170.439 161.109 166.314C163.506 165.402 164.872 164.777 164.929 164.751L165.645 164.422L165.587 163.609L160.763 96.05L160.705 95.2452L159.96 95.0249L137.728 88.4541L137.58 88.4098ZM137.425 89.5641L159.657 96.1355L164.481 163.695C164.481 163.695 163.119 164.32 160.728 165.23C149.947 169.331 138.601 171.377 127.217 171.377C120.628 171.377 114.028 170.692 107.515 169.324C102.396 168.249 97.2655 166.845 93.7596 165.083L99.9478 96.7687L116.749 89.5641H137.425Z" fill="#4D2326"/>
<path d="M164.478 163.693C164.478 163.693 163.12 164.322 160.731 165.228C143.707 171.703 125.28 173.053 107.513 169.325C102.397 168.246 97.2639 166.844 93.7604 165.084L95.0688 150.612C103.35 156.919 113.994 160.705 125.607 160.705C140.791 160.705 154.323 154.224 163.082 144.109L164.478 163.693Z" fill="#E8A46D"/>
<path d="M131.305 89.5642L140.157 196.129C140.157 196.129 158.939 195.042 172.738 183.975L159.658 96.1356L137.425 89.5642H131.305Z" fill="white"/>
<path d="M159.657 96.1349L162.829 96.991C167.516 98.2561 171.346 101.763 173.147 106.441L185.755 139.18C187.252 143.066 187.503 147.355 186.434 151.392C186.407 151.492 186.381 151.594 186.352 151.695C183.759 161.125 174.573 166.855 165.306 165.075L135.942 159.662C135.942 159.662 135.308 144.376 140.859 135.574L166.121 139.546L159.657 96.1349Z" fill="white"/>
<path d="M137.58 88.4098H137.425H131.306H130.097L130.201 89.6635L135.253 150.482C134.674 155.578 134.827 159.543 134.834 159.711L134.872 160.637L135.748 160.798L136.115 160.866L139.053 196.229L139.146 197.343L140.219 197.282C141 197.236 159.504 196.046 173.415 184.889L173.934 184.472L173.833 183.798L171.239 166.374C178.889 165.334 185.306 159.693 187.418 152.013C187.447 151.908 187.475 151.802 187.503 151.698C188.624 147.462 188.369 142.864 186.784 138.75L174.176 106.012C172.252 101.015 168.114 97.2246 163.108 95.874L159.935 95.0179L137.728 88.4535L137.58 88.4098ZM137.425 89.5641L159.657 96.1355L162.829 96.991C167.516 98.2555 171.346 101.763 173.147 106.441L185.755 139.18C187.252 143.066 187.502 147.355 186.435 151.392C186.408 151.492 186.38 151.593 186.352 151.695C184.197 159.532 177.488 164.808 169.965 165.348L172.738 183.974C158.939 195.041 140.158 196.129 140.158 196.129L137.147 159.884L135.941 159.662C135.941 159.662 135.777 155.621 136.367 150.5L131.306 89.5641H137.425Z" fill="#4D2326"/>
<path d="M141.756 193.251C141.756 193.251 157.14 192.88 170.984 182.096" stroke="#E8D2D5" stroke-width="2.504" stroke-miterlimit="10" stroke-linecap="round" stroke-linejoin="round" stroke-dasharray="2.5 5.01"/>
<path d="M99.9479 96.7688L96.3914 98.2378C92.5249 99.8348 89.5973 103.221 88.477 107.391L77.631 147.769C75.5345 155.574 79.0513 163.968 86.1336 167.334C88.9999 168.696 92.6368 169.521 97.2374 169.299L99.9479 96.7688Z" fill="white"/>
<path d="M124.81 88.4098H123.603H116.749H116.53L116.327 88.4972L99.5253 95.7018L95.9828 97.1645C91.8206 98.8843 88.6154 102.591 87.4097 107.08L76.5629 147.458C74.309 155.848 78.226 164.845 85.6729 168.384C86.7618 168.901 87.9451 169.33 89.2013 169.664L87.4868 182.646L87.4172 183.171L87.7545 183.568C98.4464 196.129 114.152 197.24 114.816 197.281L115.894 197.348L115.986 196.227L124.708 89.6623L124.81 88.4098ZM123.603 89.5641L114.882 196.129C114.882 196.129 99.0944 195.15 88.5848 182.803L90.4376 168.778C88.8425 168.43 87.4073 167.939 86.1337 167.334C79.0513 163.968 75.5345 155.573 77.631 147.768L88.477 107.391C89.5974 103.221 92.5249 99.8347 96.3914 98.2378L99.9479 96.7687L116.749 89.5641H123.603Z" fill="#4D2326"/>
<path d="M123.604 89.5642L114.881 196.129C114.881 196.129 99.0942 195.15 88.5846 182.803L99.9477 96.7688L116.749 89.5642H123.604Z" fill="white"/>
<path d="M90.4367 168.778L98.085 110.872C98.1322 110.518 97.8928 110.19 97.5522 110.143C97.2116 110.095 96.8976 110.343 96.852 110.697L89.2948 168.605L90.4367 168.778Z" fill="#4D2326"/>
<path d="M89.8278 181.156C89.8278 181.156 97.3825 190.617 113.602 193.799" stroke="#E8D2D5" stroke-width="2.504" stroke-miterlimit="10" stroke-linecap="round" stroke-linejoin="round" stroke-dasharray="2.5 5.01"/>
<path d="M152.202 93.9681V118.333H149.998L150.03 93.2007L152.202 93.9681Z" fill="#B0A09B"/>
<path d="M148.924 91.5905L148.921 93.1988L148.889 118.332L148.887 119.488H149.997H152.202H153.31V118.333V93.9675V93.1405L152.558 92.8752L150.386 92.1071L148.924 91.5905ZM150.03 93.2001L152.202 93.9675V118.333H149.997L150.03 93.2001Z" fill="#4D2326"/>
<path d="M152.201 112.845V117.68H149.998V112.845C150.358 112.769 150.725 112.73 151.1 112.73C151.474 112.73 151.841 112.769 152.201 112.845Z" fill="#9C8D89"/>
<path d="M156.992 121.338C156.992 124.726 154.354 127.472 151.1 127.472C147.846 127.472 145.207 124.726 145.207 121.338C145.207 117.951 147.846 115.205 151.1 115.205C154.354 115.205 156.992 117.951 156.992 121.338Z" fill="#B0A09B"/>
<path d="M151.1 114.051C147.239 114.051 144.099 117.32 144.099 121.338C144.099 125.357 147.239 128.626 151.1 128.626C154.96 128.626 158.1 125.357 158.1 121.338C158.1 117.32 154.96 114.051 151.1 114.051ZM151.1 115.205C154.354 115.205 156.991 117.951 156.991 121.338C156.991 124.726 154.354 127.472 151.1 127.472C147.846 127.472 145.207 124.726 145.207 121.338C145.207 117.951 147.846 115.205 151.1 115.205Z" fill="#4D2326"/>
<path d="M154.993 121.338C154.993 123.577 153.25 125.392 151.1 125.392C148.949 125.392 147.206 123.577 147.206 121.338C147.206 119.099 148.949 117.285 151.1 117.285C153.25 117.285 154.993 119.099 154.993 121.338Z" fill="#9C8D89"/>
<path d="M151.1 117.285C148.949 117.285 147.205 119.1 147.205 121.338C147.205 123.577 148.949 125.392 151.1 125.392C153.25 125.392 154.994 123.577 154.994 121.338C154.994 119.1 153.25 117.285 151.1 117.285ZM151.1 118.469C152.62 118.469 153.857 119.757 153.857 121.338C153.857 122.921 152.62 124.207 151.1 124.207C149.579 124.207 148.343 122.921 148.343 121.338C148.343 119.757 149.579 118.469 151.1 118.469Z" fill="#8A7C79"/>
<path d="M109.13 109.286L107.331 109.343L107.303 108.466L107.265 107.077L106.97 93.7807L108.747 93.0342L109.069 107.054L109.107 108.46L109.13 109.286Z" fill="#B0A09B"/>
<path d="M109.13 109.286L107.331 109.343L107.303 108.466L107.265 107.077C107.467 107.032 107.669 107.003 107.877 106.991C108.282 106.963 108.682 106.986 109.07 107.054L109.108 108.46L109.13 109.286Z" fill="#9C8D89"/>
<path d="M111.728 109.521C110.68 108.501 109.311 107.993 107.876 108.094C105.196 108.28 103.098 110.699 103.098 113.6V129.835C103.098 130.329 103.483 130.729 103.957 130.729H104.484C104.967 130.729 105.361 130.32 105.361 129.817V113.421C105.361 112.566 105.715 111.749 106.335 111.181C106.963 110.607 107.769 110.352 108.605 110.464C110.023 110.653 111.093 111.974 111.093 113.535V129.817C111.093 130.32 111.487 130.729 111.97 130.729H112.498C112.971 130.729 113.356 130.329 113.356 129.835V113.421C113.356 111.95 112.763 110.53 111.728 109.521Z" fill="#B0A09B"/>
<path d="M109.816 91.3416L108.331 91.9653L106.553 92.7124L105.841 93.0119L105.859 93.8104L106.166 107.3C103.697 108.217 101.989 110.724 101.989 113.6V129.835C101.989 130.965 102.871 131.884 103.957 131.884H104.484C105.578 131.884 106.469 130.957 106.469 129.816V113.421C106.469 112.897 106.687 112.397 107.068 112.047C107.393 111.75 107.792 111.592 108.223 111.592C108.301 111.592 108.383 111.598 108.464 111.609C109.331 111.724 109.984 112.552 109.984 113.535V129.816C109.984 130.957 110.875 131.884 111.97 131.884H112.497C113.582 131.884 114.465 130.965 114.465 129.835V113.421C114.465 111.632 113.744 109.903 112.485 108.679C111.821 108.033 111.039 107.551 110.187 107.259L109.855 93.0075L109.816 91.3416ZM108.746 93.036L109.099 108.163C110.076 108.337 110.983 108.796 111.728 109.522C112.763 110.53 113.356 111.95 113.356 113.421V129.835C113.356 130.329 112.971 130.73 112.497 130.73H111.97C111.487 130.73 111.093 130.32 111.093 129.816V113.535C111.093 111.973 110.023 110.653 108.605 110.464C108.477 110.447 108.348 110.438 108.223 110.438C107.526 110.438 106.866 110.695 106.335 111.182C105.715 111.749 105.36 112.566 105.36 113.421V129.816C105.36 130.32 104.967 130.73 104.484 130.73H103.957C103.483 130.73 103.097 130.329 103.097 129.835V113.6C103.097 110.913 104.9 108.643 107.294 108.175L106.968 93.7832L108.746 93.036Z" fill="#4D2326"/>
<path d="M104.598 129.256H103.86C103.439 129.256 103.098 128.901 103.098 128.462V114.14C103.098 113.702 103.439 113.346 103.86 113.346H104.598C105.019 113.346 105.361 113.702 105.361 114.14V128.462C105.361 128.901 105.019 129.256 104.598 129.256Z" fill="#BDACA6"/>
<path d="M112.594 129.256H111.856C111.434 129.256 111.093 128.901 111.093 128.462V114.14C111.093 113.702 111.434 113.346 111.856 113.346H112.594C113.015 113.346 113.357 113.702 113.357 114.14V128.462C113.357 128.901 113.015 129.256 112.594 129.256Z" fill="#BDACA6"/>
<path d="M118.897 81.9904L117.451 82.4703C117.19 82.5577 111.023 84.684 109.18 92.0792L109.145 92.2185L109.143 92.3622C109.142 92.8068 109.203 103.341 120.241 109.71L121.898 110.666L121.887 108.694C121.887 108.608 121.923 99.8746 127.356 94.4404L129.21 92.5851L126.642 92.4553C126.597 92.4534 122.11 92.1729 118.898 89.0759L118.897 83.5696V81.9904ZM117.788 83.5702L117.789 89.5641C121.375 93.3443 126.588 93.6084 126.588 93.6084C120.73 99.4674 120.778 108.7 120.778 108.7C110.189 102.59 110.252 92.3692 110.252 92.3692C111.965 85.5053 117.788 83.5702 117.788 83.5702Z" fill="#4D2326"/>
<path d="M137.356 81V82.4026L137.357 88.936C132.372 92.202 128.14 92.4629 126.932 92.4629C126.77 92.4629 126.676 92.4572 126.659 92.4572L123.687 92.2666L125.812 94.4334C132.518 101.257 133.271 108.735 133.278 108.81L133.416 110.311L134.772 109.781C146.966 105.013 149.754 92.6313 149.866 92.1058L149.941 91.7563L149.813 91.4232C146.541 82.9661 138.997 81.3356 138.678 81.2698L137.356 81ZM138.465 82.4026C138.465 82.4026 145.699 83.8811 148.784 91.8544C148.784 91.8544 146.155 104.097 134.382 108.701C134.382 108.701 133.661 100.807 126.588 93.6084C126.588 93.6084 126.707 93.6166 126.932 93.6166C128.223 93.6166 132.99 93.3374 138.466 89.5641L138.465 82.4026Z" fill="#4D2326"/>
<path d="M117.789 83.5702C117.789 83.5702 111.964 85.5046 110.253 92.3692C110.253 92.3692 110.189 102.59 120.778 108.701C120.778 108.701 120.729 99.4681 126.588 93.6084C126.588 93.6084 121.375 93.345 117.79 89.5641L117.789 83.5702Z" fill="white"/>
<path d="M138.465 82.4026C138.465 82.4026 145.7 83.8811 148.785 91.8544C148.785 91.8544 146.156 104.097 134.382 108.701C134.382 108.701 133.661 100.807 126.588 93.6084C126.588 93.6084 132.038 93.9928 138.465 89.5641L138.465 82.4026Z" fill="white"/>
<path d="M117.79 77.0103V89.5642C117.79 89.5642 125.003 98.664 138.466 89.5642V77.0103H117.79Z" fill="#FF9498"/>
<path d="M139.739 75.6849H138.466H117.79H116.516V77.0102V89.5642V90.0403L116.807 90.4076C116.954 90.5925 120.473 94.9344 127.122 94.9344C130.93 94.9344 134.979 93.5014 139.16 90.6761L139.739 90.2841V89.5642V77.0102V75.6849ZM138.466 77.0102V89.5642C133.978 92.5978 130.186 93.6084 127.122 93.6084C120.997 93.6084 117.79 89.5642 117.79 89.5642V77.0102H138.466Z" fill="#4D2326"/>
<path d="M138.465 77.5884V86.4134C135.225 87.0826 131.526 87.4828 127.299 87.4828C123.777 87.4828 120.618 87.2036 117.789 86.7293V77.5884H138.465Z" fill="#E3747B"/>
<path d="M159.855 17.3939C159.855 17.3939 164.113 14.6389 169.858 13.5156C181.623 11.215 192.343 20.56 192.455 33.0214C192.49 36.8644 191.726 41.3538 189.49 46.3548C187.581 50.6201 186.188 55.1203 185.584 59.7826C184.708 66.5471 184.984 74.7541 190.614 77.5573C190.614 77.5573 180.448 81.8143 174.147 77.0975C174.147 77.0975 161.549 77.5864 162.101 62.0988L159.855 17.3939Z" fill="#AD3B3F"/>
<path d="M173.439 12.0123H173.437C172.179 12.0123 170.906 12.1369 169.653 12.3816C163.771 13.5322 159.451 16.2967 159.27 16.4139L158.713 16.7735L158.748 17.4542L160.992 62.1078C160.815 67.3298 162.053 71.4115 164.672 74.2413C167.986 77.8214 172.475 78.2146 173.799 78.2501C175.915 79.7261 178.58 80.4739 181.725 80.4739C186.563 80.4739 190.848 78.7035 191.029 78.6281L193.368 77.6486L191.093 76.5164C186.002 73.9823 185.884 66.1014 186.683 59.9372C187.235 55.6675 188.518 51.2617 190.495 46.8419C192.572 42.1973 193.605 37.5433 193.564 33.0108C193.513 27.3354 191.374 22.0329 187.542 18.0811C183.749 14.1673 178.741 12.0123 173.439 12.0123ZM173.437 13.1662C183.713 13.1655 192.354 21.8385 192.455 33.0216C192.49 36.8651 191.726 41.3539 189.49 46.3549C187.582 50.6202 186.188 55.1204 185.584 59.7833C184.708 66.5478 184.984 74.7542 190.615 77.5574C190.615 77.5574 186.404 79.3202 181.725 79.3202C179.131 79.3202 176.394 78.7795 174.147 77.0977C174.147 77.0977 174.103 77.0989 174.02 77.0989C172.699 77.0989 161.581 76.6671 162.102 62.0989L159.854 17.3941C159.854 17.3941 164.113 14.6396 169.858 13.5163C171.065 13.2801 172.262 13.1662 173.437 13.1662Z" fill="#4D2326"/>
<path d="M89.4581 56.6609L91.1013 33.4723C91.1013 33.4723 88.105 20.7563 97.7644 12.6348C97.7644 12.6348 106.236 4.83441 116.53 11.2459C116.53 11.2459 121.293 -5.85928 151.829 4.61399C151.829 4.61399 181.042 16.0294 170.455 38.2802L170.577 62.2679L125.384 79.2441L89.4581 56.6609Z" fill="#AD3B3F"/>
<path d="M171.376 36.0996C155.003 41.9257 120.177 49.6172 91.0507 24.4366C91.7467 20.5854 93.5531 16.177 97.7635 12.6362C97.7635 12.6362 100.887 9.7623 105.641 8.93774C115.08 18.6092 135.334 31.7235 171.921 23.3589C173.092 27.0631 173.163 31.3138 171.376 36.0996Z" fill="#BF4146"/>
<path d="M134.334 0.0654297C121.83 0.0654297 117.343 6.70369 115.98 9.60681C113.452 8.2496 110.829 7.56289 108.164 7.56289C101.831 7.56352 97.432 11.4066 97.05 11.7517C87.509 19.7901 89.6237 31.8488 89.9825 33.5604L88.3526 56.5761L88.3029 57.2821L88.8854 57.6487L124.811 80.2326L125.263 80.5169L125.761 80.3301L170.952 63.3533L171.689 63.0772L171.685 62.2616L171.564 38.5272C174.565 31.5778 175.457 21.1698 163.122 10.6201C157.431 5.75217 150.328 2.39436 142.582 0.91082C139.655 0.349927 136.88 0.0654297 134.334 0.0654297ZM134.334 1.2195C136.701 1.2195 139.369 1.46823 142.381 2.04584C149.709 3.44978 156.662 6.58769 162.418 11.5116C169.154 17.2725 175.704 26.445 170.455 38.2796L170.577 62.268L125.384 79.2448L89.458 56.6609L91.1012 33.4724C91.1012 33.4724 88.1048 20.7563 97.7634 12.6349C97.7634 12.6349 102.02 8.7176 108.163 8.71696C110.689 8.71639 113.531 9.37828 116.53 11.2462C116.53 11.2462 119.325 1.2195 134.334 1.2195Z" fill="#4D2326"/>
<path d="M105.372 58.9152C105.372 58.9152 101.79 54.3827 97.0599 52.5597C89.2044 49.5323 81.9546 58.8392 86.4873 66.1717C88.7569 69.8424 93.9384 72.6772 105.372 70.4661V58.9152Z" fill="#FF9498"/>
<path d="M93.9848 50.819C90.3753 50.819 87.0127 52.9567 85.2079 56.3988C83.4611 59.732 83.5912 63.6186 85.5551 66.796C87.8537 70.5135 92.0649 72.3986 98.0725 72.3986C100.313 72.3986 102.836 72.1301 105.575 71.6007L106.481 71.4253V70.466V58.9151V58.5016L106.229 58.1819C106.075 57.9868 102.399 53.386 97.4452 51.4781C96.3108 51.0406 95.1466 50.819 93.9848 50.819ZM93.9848 51.9727C94.9817 51.9727 96.0158 52.1576 97.0607 52.5596C101.79 54.382 105.372 58.9151 105.372 58.9151V70.466C102.583 71.0055 100.166 71.2442 98.0725 71.2442C91.5843 71.2442 88.2034 68.947 86.4873 66.1716C82.5571 59.8136 87.485 51.9727 93.9848 51.9727Z" fill="#4D2326"/>
<path d="M103.609 63.2102C103.609 63.2102 98.4621 56.3101 93.2383 57.9577C91.2388 58.5884 89.9867 60.5994 90.3522 62.7403C90.8137 65.4454 93.3709 68.7349 103.609 67.3994V63.2102Z" fill="#E3747B"/>
<path d="M97.5373 67.6356C89.9627 67.7066 89.1249 63.9599 89.4522 61.3555C89.6859 59.4882 90.9057 57.8716 92.6566 57.3841C95.8178 56.5115 98.8623 58.924 98.8623 58.924C97.1859 57.9356 95.2146 57.3328 93.2358 57.9552C91.2388 58.5903 89.9875 60.5982 90.3513 62.741C90.7027 64.8065 92.2737 67.2057 97.5373 67.6356Z" fill="#592D31"/>
<path d="M151.932 58.9152C151.932 58.9152 155.514 54.3827 160.244 52.5597C168.099 49.5323 175.35 58.8392 170.817 66.1717C168.547 69.8424 163.366 72.6772 151.932 70.4661V58.9152Z" fill="#FF9498"/>
<path d="M163.32 50.819H163.319C162.157 50.819 160.993 51.0406 159.859 51.4781C154.905 53.386 151.23 57.9868 151.076 58.1819L150.823 58.5016V58.9151V70.466V71.4253L151.729 71.6007C154.467 72.1301 156.991 72.3986 159.231 72.3986C165.239 72.3986 169.451 70.5135 171.749 66.796C173.713 63.6186 173.842 59.7313 172.096 56.3981C170.292 52.9567 166.929 50.819 163.32 50.819ZM163.319 51.9727C169.82 51.9727 174.747 59.8136 170.816 66.1716C169.1 68.947 165.72 71.2442 159.231 71.2442C157.138 71.2442 154.721 71.0055 151.932 70.466V58.9151C151.932 58.9151 155.515 54.382 160.244 52.5596C161.288 52.1576 162.323 51.9727 163.319 51.9727Z" fill="#4D2326"/>
<path d="M153.696 63.2102C153.696 63.2102 158.842 56.3101 164.066 57.9577C166.066 58.5884 167.317 60.5994 166.951 62.7403C166.491 65.4454 163.934 68.7349 153.696 67.3994V63.2102Z" fill="#E3747B"/>
<path d="M159.767 67.6356C167.341 67.7066 168.18 63.9599 167.852 61.3555C167.619 59.4882 166.398 57.8716 164.648 57.3841C161.486 56.5115 158.442 58.924 158.442 58.924C160.118 57.9356 162.09 57.3328 164.069 57.9552C166.065 58.5903 167.316 60.5982 166.952 62.741C166.601 64.8065 165.03 67.2057 159.767 67.6356Z" fill="#592D31"/>
<path d="M151.18 25.0464C149.892 24.1966 148.544 23.3355 147.174 22.4806C134.835 14.7802 119.445 14.7802 107.106 22.4806C105.736 23.3355 104.388 24.1966 103.1 25.0464C100.993 26.4375 99.6511 28.7918 99.4755 31.3822L97.0857 66.5092C96.7567 70.3294 98.2234 74.1109 101.09 76.5202C105.452 80.1852 113.489 84.5049 127.14 84.5049C140.791 84.5049 148.828 80.1852 153.189 76.5202C156.057 74.1109 157.524 70.3294 157.194 66.5092L154.805 31.3822C154.629 28.7918 153.288 26.4375 151.18 25.0464Z" fill="#FF9498"/>
<path d="M155.926 47.8467C144.56 48.2038 142.584 38.1587 142.584 38.1587C125.404 40.1704 119.284 29.4477 119.284 29.4477C120.157 39.5568 131.216 39.8664 131.216 39.8664C108.665 46.1972 109.151 27.3505 109.151 27.3505C104.857 27.8856 101.677 31.9856 99.2318 34.9224L99.4738 31.3815C99.6503 28.7911 100.993 26.4374 103.098 25.0457C104.39 24.1946 105.737 23.3385 107.106 22.4818C119.446 14.7795 134.834 14.7795 147.174 22.4818C148.542 23.3385 149.891 24.1946 151.182 25.0457C153.287 26.4374 154.63 28.7911 154.806 31.3815L155.926 47.8467Z" fill="#E3747B"/>
<path d="M127.14 15.5508C119.887 15.5508 112.763 17.6055 106.535 21.4915C104.939 22.492 103.658 23.3107 102.505 24.0706C100.159 25.6232 98.622 28.2662 98.3834 31.1504C98.3743 31.2106 98.3693 31.2682 98.3668 31.3239L98.2723 32.7081L95.9812 66.4269C95.6157 70.6719 97.2647 74.789 100.392 77.4193C104.873 81.178 113.15 85.6567 127.143 85.6567C141.131 85.6567 149.407 81.178 153.887 77.4206C157.015 74.789 158.664 70.6712 158.298 66.4053L156.927 46.2371L156.851 45.1468L155.912 31.3005C155.711 28.3535 154.165 25.6517 151.777 24.0718C150.623 23.3113 149.342 22.492 147.746 21.4928C141.518 17.6055 134.394 15.5508 127.14 15.5508ZM127.14 16.7051C134.072 16.7051 141.005 18.6307 147.174 22.4818C148.543 23.3379 149.891 24.1947 151.183 25.0457C153.287 26.4381 154.63 28.7911 154.806 31.3815L155.745 45.2304L155.821 46.3182L157.194 66.5086C157.522 70.3274 156.057 74.1108 153.191 76.5221C148.825 80.1839 140.791 84.503 127.143 84.503C113.49 84.503 105.455 80.1839 101.089 76.5221C98.2226 74.1108 96.7584 70.3274 97.0866 66.5086L99.3786 32.7898L99.4747 31.3815C99.4747 31.3556 99.4797 31.3239 99.4846 31.2973C99.681 28.7385 101.018 26.4216 103.098 25.0457C104.39 24.1947 105.738 23.3379 107.106 22.4818C113.276 18.6307 120.208 16.7051 127.14 16.7051Z" fill="#4D2326"/>
<path d="M153.051 76.6335C150.441 78.7985 146.551 81.1704 140.993 82.7364C140.453 81.3135 140.157 79.766 140.157 78.1444C140.157 71.1943 145.569 65.5569 152.246 65.5569C154.011 65.5569 155.693 65.9526 157.202 66.6618V66.6663C157.489 70.494 155.945 74.2388 153.051 76.6335Z" fill="#F28084"/>
<path d="M113.1 78.1463C113.1 79.6666 112.84 81.1173 112.36 82.4616C107.198 80.8722 103.559 78.5933 101.093 76.5202C98.2234 74.1127 96.7584 70.3293 97.0848 66.508L97.1105 66.2325C98.3361 65.7912 99.6478 65.5569 101.011 65.5569C107.689 65.5569 113.1 71.1956 113.1 78.1463Z" fill="#F28084"/>
<path d="M97.8539 36.3958C97.8539 36.3958 98.6974 25.0557 112.521 22.1848C112.521 22.1848 109.066 41.1334 128.427 39.7119C128.427 39.7119 114.128 38.3663 118.794 21.0317C118.794 21.0317 122.15 37.6812 145.047 34.4329C145.047 34.4329 146.163 46.4891 158.063 45.1315L158.019 32.9594C157.981 22.2867 149.658 13.6555 139.405 13.6555H116.543C106.424 13.6555 98.158 22.0721 97.9343 32.6035L97.8539 36.3958Z" fill="#AD3B3F"/>
<path d="M155.82 46.3175C145.808 45.8217 144.184 35.712 144.184 35.712C124.82 38.0719 119.221 25.5389 119.221 25.5389C117.974 39.0008 131.217 39.8664 131.217 39.8664C108.978 44.1773 111.261 23.7381 111.261 23.7381C104.742 24.9671 101.167 29.4971 99.3761 32.7922C98.7828 33.894 98.3834 34.8521 98.1505 35.5043L98.2118 34.5519C98.4447 33.6692 98.8383 32.532 99.4871 31.2973C101.25 27.8931 104.93 23.7615 112.519 22.1861C112.519 22.1861 109.071 41.1303 128.429 39.7163C128.429 39.7163 114.127 38.3663 118.794 21.0317C118.794 21.0317 122.149 37.6793 145.043 34.4367C145.043 34.4367 146.013 44.8808 155.748 45.2328L155.82 46.3175Z" fill="#4D2326"/>
<path d="M158.041 39.8716C154.887 40.539 151.495 41.1006 147.927 41.4692C145.409 38.3538 145.045 34.4343 145.045 34.4343C122.151 37.6807 118.795 21.0312 118.795 21.0312C114.126 38.3639 128.43 39.7145 128.43 39.7145C109.069 41.1329 112.521 22.1874 112.521 22.1874C105.228 23.7008 101.549 27.5729 99.7017 30.8934C99.1912 30.5679 98.6816 30.231 98.172 29.8948C99.3578 22.3135 104.759 16.2353 111.764 14.3015C120.829 21.1053 135.234 27.4462 156.658 25.7442C157.527 27.9718 158.011 30.4096 158.016 32.9576L158.041 39.8716Z" fill="#BF4146"/>
<path d="M117.018 59.2723C117.018 63.3596 114.252 66.6738 110.841 66.6738C107.43 66.6738 104.665 63.3596 104.665 59.2723C104.665 55.1843 107.43 51.8701 110.841 51.8701C114.252 51.8701 117.018 55.1843 117.018 59.2723Z" fill="#592D31"/>
<path d="M114.527 56.1385C114.527 57.4809 113.481 58.5694 112.191 58.5694C110.902 58.5694 109.855 57.4809 109.855 56.1385C109.855 54.7955 110.902 53.7076 112.191 53.7076C113.481 53.7076 114.527 54.7955 114.527 56.1385Z" fill="white"/>
<path d="M111.8 44.347C112.384 46.3391 110.706 48.6376 108.053 49.4804C105.399 50.3238 102.774 49.3917 102.19 47.3997C101.606 45.4076 103.284 43.1091 105.937 42.2656C108.591 41.4228 111.216 42.3543 111.8 44.347Z" fill="#592D31"/>
<path d="M134.185 59.5003C134.185 63.7763 137.077 67.2431 140.646 67.2431C144.214 67.2431 147.106 63.7763 147.106 59.5003C147.106 55.2242 144.214 51.7574 140.646 51.7574C137.077 51.7574 134.185 55.2242 134.185 59.5003Z" fill="#592D31"/>
<path d="M136.791 56.2228C136.791 57.6272 137.884 58.7657 139.233 58.7657C140.582 58.7657 141.676 57.6272 141.676 56.2228C141.676 54.8177 140.582 53.6792 139.233 53.6792C137.884 53.6792 136.791 54.8177 136.791 56.2228Z" fill="white"/>
<path d="M139.643 43.8879C139.032 45.9718 140.787 48.3761 143.563 49.2581C146.339 50.1402 149.085 49.165 149.696 47.0818C150.307 44.9973 148.552 42.593 145.776 41.711C143 40.8289 140.254 41.8034 139.643 43.8879Z" fill="#592D31"/>
<path d="M130.307 65.6315C130.307 68.0903 128.2 70.0836 125.601 70.0836C123.002 70.0836 120.895 68.0903 120.895 65.6315C120.895 63.1722 123.002 61.1788 125.601 61.1788C128.2 61.1788 130.307 63.1722 130.307 65.6315Z" fill="#592D31"/>
<path d="M130.307 66.5839C130.307 68.8178 128.2 70.6294 125.601 70.6294C123.002 70.6294 120.895 68.8178 120.895 66.5839C120.895 64.3493 123.002 62.5377 125.601 62.5377C128.2 62.5377 130.307 64.3493 130.307 66.5839Z" fill="#E3747B"/>
<path d="M128.748 66.1388C128.748 67.6325 127.339 68.8438 125.602 68.8438C123.863 68.8438 122.454 67.6325 122.454 66.1388C122.454 64.6444 123.863 63.4337 125.602 63.4337C127.339 63.4337 128.748 64.6444 128.748 66.1388Z" fill="#F28084"/>
<path d="M125.602 75.3177C119.436 75.3177 117.018 72.4373 117.018 72.4373C117.865 73.8537 119.17 74.8333 120.509 75.5077C123.707 77.1185 127.496 77.1185 130.693 75.5077C132.033 74.8333 133.339 73.8537 134.185 72.4373C134.185 72.4373 131.766 75.3177 125.602 75.3177Z" fill="#592D31"/>
<path d="M106.125 54.4948C106.125 54.4948 104.611 56.799 102.242 56.1386C102.242 56.1386 102.87 58.3307 106.125 57.4854V54.4948Z" fill="#592D31"/>
<path d="M145.578 54.5029C145.578 54.5029 147.164 56.9135 149.641 56.2221C149.641 56.2221 148.985 58.5155 145.578 57.6316V54.5029Z" fill="#592D31"/>
<path d="M144.118 167.168L144.063 167.164L113.78 162.994C112.522 162.82 111.641 161.613 111.807 160.303L117.411 116.215C117.579 114.906 118.733 113.984 119.99 114.158L121.65 114.387L150.273 118.327C151.537 118.505 152.422 119.706 152.256 121.015L146.651 165.104C146.481 166.403 145.357 167.315 144.118 167.168Z" fill="#7D4F54"/>
<path d="M144.118 167.168L144.063 167.164L115.528 163.227C114.27 163.053 113.385 161.853 113.552 160.544L119.16 116.448C119.321 115.169 120.428 114.257 121.65 114.387C121.676 114.383 121.709 114.384 121.739 114.391L150.273 118.327C151.537 118.505 152.423 119.706 152.256 121.015L146.652 165.104C146.481 166.403 145.357 167.315 144.118 167.168Z" fill="#8A5B60"/>
<path d="M138.115 114.35C137.994 113.034 137.016 111.935 135.705 111.754C134.395 111.574 133.176 112.37 132.725 113.608L127.854 112.936C127.41 112.875 127.004 113.2 126.945 113.662L126.763 115.091L132.842 115.928L137.421 116.56L143.506 117.398L143.687 115.969C143.746 115.507 143.435 115.083 142.991 115.022L138.115 114.35Z" fill="#CFACB0"/>
<path d="M149.741 118.254L115.65 144.039L116.628 136.384L142.001 117.183L149.741 118.254Z" fill="#99656A"/>
<path d="M148.882 147.572L126.235 164.702L115.528 163.227C114.271 163.054 113.385 161.853 113.552 160.543L113.753 158.986L151.017 130.796L148.882 147.572Z" fill="#99656A"/>
<path d="M135.336 110.574C134.034 110.574 132.826 111.264 132.109 112.358L128 111.792C127.915 111.78 127.831 111.775 127.747 111.775C126.789 111.775 125.972 112.52 125.846 113.51L125.81 113.793L120.139 113.012C119.99 112.991 119.838 112.981 119.688 112.981C117.987 112.981 116.535 114.306 116.313 116.064L110.706 160.153C110.459 162.092 111.774 163.88 113.638 164.136L143.919 168.309C144.069 168.33 144.221 168.34 144.37 168.34C146.071 168.34 147.524 167.015 147.747 165.257L153.353 121.168C153.6 119.228 152.285 117.441 150.422 117.184L144.751 116.403L144.787 116.12C144.925 115.028 144.185 114.023 143.136 113.878L139.028 113.312C138.56 111.879 137.352 110.817 135.851 110.61C135.68 110.587 135.507 110.574 135.336 110.574ZM135.336 111.729C135.457 111.729 135.582 111.737 135.705 111.754C137.015 111.935 137.995 113.034 138.115 114.35L142.991 115.022C143.434 115.083 143.746 115.506 143.687 115.968L143.506 117.395L150.276 118.329C151.535 118.502 152.421 119.705 152.255 121.016L146.648 165.105C146.495 166.309 145.506 167.186 144.37 167.186C144.27 167.186 144.168 167.179 144.065 167.165L113.784 162.992C112.524 162.818 111.638 161.615 111.805 160.304L117.411 116.215C117.565 115.011 118.552 114.134 119.688 114.134C119.789 114.134 119.891 114.141 119.993 114.156L126.763 115.089L126.945 113.661C126.999 113.237 127.347 112.929 127.747 112.929C127.783 112.929 127.818 112.931 127.855 112.936L132.725 113.607C133.133 112.487 134.17 111.729 135.336 111.729Z" fill="#4D2326"/>
<path d="M136.095 134.822L131.589 133.823C129.989 133.469 128.381 134.366 127.773 135.945C127.541 136.548 127.358 137.225 127.3 137.947C126.101 137.527 124.889 137.037 123.719 136.464C123.719 136.464 121.711 135.307 119.765 135.971C118.476 136.402 117.74 137.756 117.885 139.156C117.981 140.044 118.335 141.058 119.308 141.842C119.308 141.842 117.72 141.255 116.046 141.486C114.064 141.757 112.921 144.009 113.76 145.895C114.425 147.393 115.974 149.194 119.46 150.568C119.46 150.568 118.703 153.441 120.804 155.431C121.396 155.984 122.132 156.339 122.907 156.54C124.244 156.882 126.117 157.41 129.015 157.874C131.294 158.241 133.629 158.149 135.833 157.46L136.173 157.354C139.812 156.234 142.846 153.444 144.078 149.708C144.08 149.702 144.082 149.696 144.084 149.69C145.686 144.484 144.201 140.881 142.316 138.579C140.721 136.632 138.499 135.356 136.095 134.822Z" fill="#FF9498"/>
<path d="M144.084 149.689C144.084 149.694 144.079 149.7 144.079 149.706C142.92 153.232 140.148 155.915 136.789 157.144C136.928 152.343 137.665 143.653 140.897 137.155C141.412 137.577 141.884 138.056 142.315 138.58C144.201 140.883 145.686 144.484 144.084 149.689Z" fill="#E3747B"/>
<path d="M119.307 141.844C119.307 141.844 124.689 144.538 130.433 145.271C130.76 145.312 130.989 145.617 130.946 145.956C130.902 146.289 130.613 146.523 130.293 146.48C128.034 146.167 120.683 144.97 117.162 141.442C117.162 141.442 118.054 141.317 119.307 141.844Z" fill="#4D2326"/>
<path d="M128.437 152.84C128.405 153.172 128.137 153.421 127.828 153.421C127.805 153.421 127.783 153.421 127.759 153.417C126.159 153.234 122.619 152.812 119.326 151.689C119.34 151.022 119.46 150.57 119.46 150.57C119.46 150.57 122.678 151.77 127.861 152.144C128.207 152.169 128.47 152.481 128.437 152.84Z" fill="#4D2326"/>
<path d="M137.849 156.104L149.819 157.919L151.919 141.721L140.297 139.911L137.849 156.104Z" fill="#E3747B"/>
<path d="M130.888 132.592C129.055 132.592 127.427 133.74 126.744 135.516C126.629 135.813 126.531 136.111 126.451 136.408C125.664 136.1 124.916 135.774 124.219 135.433C123.949 135.284 122.648 134.612 121.053 134.612C120.481 134.612 119.931 134.7 119.419 134.875C117.662 135.463 116.574 137.275 116.782 139.28C116.82 139.627 116.887 139.96 116.981 140.279C116.94 140.278 116.9 140.278 116.859 140.278C116.53 140.278 116.207 140.299 115.9 140.342C114.621 140.517 113.523 141.301 112.891 142.496C112.256 143.694 112.205 145.146 112.754 146.38C113.658 148.415 115.5 150.067 118.238 151.298C118.151 152.534 118.319 154.637 120.057 156.285C120.757 156.936 121.623 157.397 122.639 157.66L123.143 157.791C124.453 158.131 126.246 158.597 128.847 159.014C129.776 159.163 130.708 159.24 131.618 159.24C133.194 159.24 134.721 159.013 136.152 158.565L136.488 158.461C137.329 158.202 138.148 157.857 138.929 157.434L149.66 159.061L150.768 159.229L150.918 158.074L153.017 141.875L153.164 140.747L152.082 140.579L144.226 139.356C143.91 138.821 143.552 138.309 143.16 137.83C141.468 135.765 139.041 134.296 136.326 133.694L131.82 132.694C131.513 132.627 131.2 132.592 130.888 132.592ZM130.888 133.746C131.12 133.746 131.354 133.771 131.589 133.823L136.095 134.822C138.499 135.356 140.721 136.632 142.316 138.579C142.757 139.117 143.175 139.73 143.537 140.415L151.918 141.721L149.819 157.919L138.726 156.236C137.923 156.702 137.066 157.08 136.173 157.355L135.832 157.459C134.463 157.888 133.043 158.086 131.618 158.086C130.748 158.086 129.877 158.012 129.015 157.874C126.117 157.409 124.244 156.882 122.907 156.539C122.132 156.339 121.397 155.983 120.804 155.431C118.703 153.441 119.461 150.568 119.461 150.568C115.974 149.194 114.425 147.394 113.76 145.895C112.921 144.009 114.064 141.756 116.046 141.486C116.322 141.448 116.595 141.432 116.859 141.432C118.199 141.432 119.308 141.842 119.308 141.842C118.335 141.058 117.982 140.044 117.885 139.156C117.739 137.756 118.476 136.402 119.765 135.971C120.199 135.823 120.636 135.766 121.053 135.766C122.507 135.766 123.719 136.465 123.719 136.465C124.889 137.037 126.102 137.527 127.3 137.948C127.358 137.226 127.541 136.548 127.773 135.945C128.291 134.598 129.539 133.746 130.888 133.746Z" fill="#4D2326"/>
<path d="M127.3 137.947C127.3 137.947 131.03 139.224 135.227 139.906C135.612 139.969 135.97 139.683 136.005 139.278C136.037 138.912 135.792 138.582 135.443 138.525C133.849 138.265 129.593 137.504 127.589 136.478C127.589 136.478 127.35 137.11 127.3 137.947Z" fill="#4D2326"/>
<path d="M138.727 156.237C138.727 156.237 141.856 154.346 143.516 151.075C143.656 150.799 143.972 150.679 144.242 150.813C144.53 150.957 144.641 151.324 144.48 151.611C143.866 152.707 142.289 155.2 140.072 156.441L138.727 156.237Z" fill="#4D2326"/>
<path d="M159.657 96.1349L162.829 96.991C167.516 98.2561 171.346 101.763 173.147 106.441L185.755 139.18C187.251 143.066 187.503 147.355 186.434 151.392C186.407 151.492 186.381 151.594 186.352 151.695C183.759 161.125 174.572 166.855 165.306 165.075L139.786 160.476C139.786 160.476 139.152 145.19 144.703 136.388L166.121 139.546L159.657 96.1349Z" fill="white"/>
<path d="M171.105 165.228C170.309 165.342 169.502 165.396 168.691 165.396C167.571 165.396 166.437 165.294 165.308 165.077L139.785 160.474C139.785 160.474 139.15 145.192 144.703 136.388L171.408 140.466C171.754 140.519 172.052 140.209 171.999 139.849C171.965 139.615 171.787 139.432 171.563 139.396L144.858 135.316L144.198 135.213L143.833 135.793C141.439 139.585 139.857 144.911 139.129 151.611C138.593 156.557 138.739 160.366 138.744 160.523L138.78 161.389L139.602 161.541L165.126 166.145C166.296 166.366 167.498 166.48 168.691 166.48C169.575 166.48 170.449 166.42 171.308 166.296L171.105 165.228Z" fill="#4D2326"/>
<path d="M166.122 139.546L161.81 110.591C161.764 110.283 161.941 109.986 162.227 109.893C162.58 109.779 162.95 110.017 163.006 110.399L167.391 139.822L166.122 139.546Z" fill="#4D2326"/>
<path d="M145.93 138.012C145.93 138.012 140.974 147.181 141.434 159.375" stroke="#E8D2D5" stroke-width="2.504" stroke-miterlimit="10" stroke-linecap="round" stroke-linejoin="round" stroke-dasharray="2.5 5.01"/>
<path d="M75.8519 203.602L103.367 203.614C103.842 203.614 104.282 203.346 104.504 202.908C104.512 202.893 104.52 202.877 104.529 202.86C106.113 199.69 103.951 195.994 100.52 195.918C99.4324 195.894 98.1945 196.127 96.9034 196.866C96.9034 196.866 92.0791 194.614 86.18 192.581C81.5687 190.991 76.6283 194.035 75.8196 199.021C75.6058 200.343 75.5842 201.863 75.8519 203.602Z" fill="#D17A5A"/>
<path d="M83.6693 191.003C79.222 191.003 75.4617 194.294 74.7267 198.829C74.4781 200.367 74.488 202.034 74.7573 203.785L74.9065 204.755L75.8511 204.756L103.367 204.768C104.259 204.768 105.07 204.262 105.483 203.449L105.512 203.392C106.426 201.564 106.376 199.427 105.379 197.674C104.366 195.897 102.559 194.809 100.543 194.764C100.486 194.763 100.427 194.762 100.369 194.762C99.1624 194.762 97.9865 195.04 96.8679 195.59C95.4857 194.966 91.3375 193.143 86.529 191.485C85.6001 191.165 84.638 191.003 83.6693 191.003ZM83.6693 192.157C84.4988 192.157 85.3448 192.293 86.1801 192.58C92.0792 194.614 96.9035 196.866 96.9035 196.866C98.1349 196.161 99.3198 195.917 100.369 195.917C100.419 195.917 100.469 195.917 100.519 195.918C103.951 195.994 106.113 199.691 104.529 202.86C104.52 202.877 104.512 202.893 104.504 202.908C104.282 203.346 103.843 203.614 103.368 203.614L75.852 203.602C75.5843 201.863 75.6059 200.343 75.8196 199.021C76.4817 194.937 79.9148 192.157 83.6693 192.157Z" fill="#4D2326"/>
<path d="M56.8446 168.051C56.8446 168.051 51.2422 173.328 44.3056 173.606C44.3056 173.606 33.3394 172.301 28.206 180.595C23.2201 188.651 27.476 199.4 36.3441 201.973C40.0365 203.044 44.9926 203.714 51.6349 203.506L69.8244 203.532C79.7589 203.547 88.419 196.347 90.4417 186.223C90.9663 183.598 91.2057 180.614 91.0276 177.23L56.8446 168.051Z" fill="#E68D6C"/>
<path d="M90.4408 186.225C90.3074 186.892 90.1466 187.549 89.9544 188.195C86.687 189.775 82.8919 190.933 78.5714 191.662C76.9191 191.94 75.2618 192.085 73.636 192.085C73.4065 192.085 73.1819 192.079 72.9573 192.074C69.5085 191.991 64.3329 191.501 59.2541 189.631C52.1801 187.031 47.1925 180.76 45.6578 173.491C51.9555 172.656 56.8428 168.054 56.8428 168.054L91.0291 177.231C91.2056 180.615 90.9645 183.598 90.4408 186.225Z" fill="#D17A5A"/>
<path d="M58.3816 195.981C55.5012 195.689 53.9227 197.267 53.9227 197.267L49.4406 196.379C49.4406 196.379 49.5466 195.414 49.2044 193.824C47.9615 188.043 42.5778 184.789 37.3093 186.078C34.8565 186.677 32.3922 188.331 30.7399 192.363C30.8658 192.153 32.9432 188.768 36.5221 187.335C41.4301 185.374 46.9663 188.557 48.0435 193.918C48.2656 194.998 48.2896 196.205 47.9996 197.508L54.1539 198.362C54.1539 198.362 54.753 197.784 55.7432 197.367C59.2981 195.874 63.4529 198.922 61.9505 203.174C61.9091 203.291 61.8925 203.416 61.8536 203.542H62.9449C62.9979 203.404 63.046 203.269 63.0891 203.136C64.1854 199.762 61.7881 196.326 58.3816 195.981Z" fill="#4D2326"/>
<path d="M69.8244 203.532L97.7072 203.544C97.7072 203.544 97.9069 203.268 98.1406 202.8C99.7051 199.67 97.5705 196.02 94.1814 195.945C93.1091 195.921 91.8861 196.152 90.6108 196.881C90.6108 196.881 85.847 194.657 80.0208 192.649C75.4749 191.082 70.6273 194.032 69.8037 198.943C69.5816 200.264 69.5551 201.786 69.8244 203.532Z" fill="#E68D6C"/>
<path d="M56.5438 166.778L56.1021 167.194C56.0491 167.244 50.74 172.156 44.3388 172.449C44.1176 172.427 43.5168 172.377 42.6608 172.377C39.8766 172.377 34.6644 172.894 30.5047 176.287C30.0299 176.252 29.5418 176.235 29.0471 176.235C25.6116 176.235 19.2609 177.133 15.3315 183.147C13.3369 186.207 12.4528 189.828 12.8414 193.345C13.1836 196.476 14.3769 199.088 16.3872 201.106C19.0554 203.784 23.0859 205.282 28.3651 205.557L28.3842 205.558L28.4032 205.558C28.4985 205.56 37.9724 205.796 39.768 211.493C39.9976 212.234 40.658 212.735 41.4104 212.735C42.1843 212.735 42.8497 212.215 43.0652 211.44C43.4232 210.155 43.6701 208.88 43.7994 207.651C43.9112 206.592 43.898 205.526 43.7596 204.462C45.5047 204.619 47.355 204.697 49.2816 204.697C50.0531 204.697 50.8502 204.685 51.6507 204.66L69.8227 204.687L97.7064 204.698H98.2616L98.5947 204.236C98.6204 204.2 98.8558 203.868 99.1234 203.332C100.028 201.522 99.9794 199.407 98.9917 197.672C97.9898 195.912 96.2008 194.835 94.2046 194.791C94.1483 194.79 94.0911 194.789 94.0339 194.789C92.8415 194.789 91.6814 195.063 90.576 195.604C90.0979 195.388 89.2866 195.028 88.2227 194.577C89.8319 192.116 90.9414 189.391 91.5273 186.457C92.1032 183.575 92.3078 180.449 92.1347 177.167L92.0899 176.324L91.3044 176.113L57.1222 166.934L56.5438 166.778ZM26.1162 187.206C26.127 187.008 26.1444 186.811 26.1643 186.612C26.1187 186.988 26.1112 187.204 26.1112 187.204C26.1129 187.204 26.1146 187.205 26.1162 187.206ZM56.8446 168.051L91.0276 177.23C91.2058 180.613 90.9663 183.598 90.4417 186.222C89.7772 189.548 88.3934 192.555 86.4867 195.097C88.9883 196.124 90.6108 196.88 90.6108 196.88C91.8272 196.184 92.9965 195.943 94.0339 195.943C94.0828 195.943 94.1325 195.944 94.1814 195.945C97.5705 196.02 99.7051 199.67 98.1406 202.8C97.907 203.267 97.7073 203.544 97.7073 203.544L69.8244 203.532L51.635 203.506C50.8254 203.532 50.0415 203.544 49.2816 203.544C46.7153 203.544 44.4266 203.404 42.3832 203.16C42.7329 204.558 42.8555 206.03 42.6973 207.525C42.5539 208.882 42.278 210.124 42.0004 211.119C41.915 211.426 41.6631 211.581 41.4104 211.581C41.1626 211.581 40.914 211.432 40.8212 211.133C38.7529 204.572 28.4206 204.404 28.4206 204.404C17.1951 203.818 14.4341 197.709 13.9427 193.212C13.5772 189.897 14.4473 186.558 16.2479 183.796C19.8484 178.286 25.6563 177.388 29.0471 177.388C29.7771 177.388 30.3961 177.43 30.8552 177.476C34.8327 174.017 40.0464 173.532 42.6608 173.532C43.6809 173.532 44.3056 173.606 44.3056 173.606C51.2422 173.328 56.8446 168.051 56.8446 168.051Z" fill="#4D2326"/>
<path d="M86.4867 195.097L80.0208 192.649C80.0208 192.649 76.3168 190.917 73.0072 193.708C73.0072 193.708 75.7061 190.039 80.6249 191.963L87.5904 194.472L86.4867 195.097Z" fill="#4D2326"/>
<path d="M42.6971 207.525C42.5546 208.882 42.277 210.124 42.0002 211.119C41.8312 211.728 41.0083 211.738 40.8211 211.133C38.7528 204.572 28.4205 204.405 28.4205 204.405C17.1949 203.818 14.4347 197.709 13.9425 193.212C13.5763 189.897 14.448 186.558 16.2478 183.796C20.6255 177.096 28.2689 177.216 30.86 177.477C26.2702 181.792 26.1111 187.204 26.1111 187.204C26.8477 187.362 27.4469 187.637 27.92 187.934C29.1754 188.725 29.9303 190.194 29.7646 191.71C29.6403 192.822 29.1215 193.417 29.1215 193.417C31.4939 193.393 33.7138 194.063 35.4788 194.844C40.2849 196.965 43.2689 202.121 42.6971 207.525Z" fill="#E68D6C"/>
<path d="M90.6114 196.88C90.6114 196.88 88.9044 197.838 88.7511 200.388C88.7511 200.388 87.8546 198.132 90.0422 196.129L90.6114 196.88Z" fill="#4D2326"/>
<path d="M97.6326 200.142C97.3426 201.653 95.6 202.566 93.7405 202.179C91.881 201.793 90.6091 200.255 90.8983 198.743C91.1883 197.232 92.9301 196.32 94.7904 196.706C96.649 197.092 97.9218 198.631 97.6326 200.142Z" fill="#F09573"/>
<path d="M61.102 200.767C60.8028 202.131 59.1994 202.914 57.5206 202.515C55.8409 202.116 54.7223 200.687 55.0214 199.323C55.3197 197.96 56.9231 197.177 58.602 197.576C60.2816 197.975 61.4003 199.404 61.102 200.767Z" fill="#F09573"/>
<path d="M54.154 198.363C54.154 198.363 52.7809 199.397 52.993 201.371C52.993 201.371 51.9175 200.178 53.4322 197.938L54.154 198.363Z" fill="#4D2326"/>
<path d="M42.384 203.16C42.384 203.16 40.2511 193.773 29.1217 193.417C29.1217 193.417 30.4467 192.054 29.3819 189.564C29.3819 189.564 28.1207 186.791 23.7496 187.036C23.7496 187.036 26.7626 185.65 29.4581 188.222C30.2793 189.005 30.8304 190.076 30.8453 191.234C30.8502 191.615 30.803 192.027 30.6679 192.45C30.6679 192.45 31.8985 192.507 33.6544 192.96C38.4571 194.2 42.3401 198.044 43.4207 203.071C43.4663 203.286 43.5093 203.507 43.5466 203.732L42.384 203.16Z" fill="#4D2326"/>
<path d="M26.1161 187.206C26.1161 187.206 26.2321 183.796 27.5546 181.987C27.5546 181.987 25.4515 183.381 25.4581 186.953L26.1161 187.206Z" fill="#4D2326"/>
<path d="M37.9805 203.705C40.9669 204.61 42.9084 207.835 42.0094 211.091C42.0069 211.1 42.0036 211.11 42.0011 211.12C41.8296 211.726 41.0092 211.738 40.8203 211.132C38.7528 204.571 28.4197 204.404 28.4197 204.404C17.1941 203.821 14.4331 197.71 13.9459 193.215C13.7901 191.824 13.8572 190.434 14.1232 189.078C13.8738 190.763 14.7612 204.417 27.8529 200.482C27.7584 200.51 29.4282 201.988 29.5458 202.056C31.9621 203.441 34.5583 203.124 37.1743 203.523C37.4502 203.565 37.7195 203.626 37.9805 203.705Z" fill="#DB7D5C"/>
<path d="M70.397 139.598C70.397 139.598 95.3647 136.918 101.552 158.671C103.266 164.694 102.431 171.244 98.9693 176.389C95.7649 181.15 89.7764 185.605 78.7406 187.473C77.0187 187.765 75.2752 187.9 73.5318 187.856C70.46 187.781 65.3257 187.347 60.3539 185.521C51.1312 182.134 46.0591 171.893 48.5914 162.06C50.8428 153.318 56.4543 141.455 70.397 139.598Z" fill="#E68D6C"/>
<path d="M54.6297 150.071C55.5238 154.165 55.1103 157.264 54.4101 159.409C53.6187 161.819 51.5422 163.54 49.1167 163.894C44.12 164.62 40.6903 162.787 38.5392 160.833C36.2339 158.748 35.3017 155.41 36.122 152.346C37.8125 146.008 43.284 145.992 43.284 145.992C43.5425 142.694 45.0175 140.391 46.306 138.982C47.6426 137.515 49.4499 136.556 51.3806 136.364C56.7013 135.839 60.2835 140.843 61.5339 142.929C57.2705 145.909 54.6297 150.071 54.6297 150.071Z" fill="#E68D6C"/>
<path d="M95.8759 153.323C93.6237 152.029 90.9091 149.334 90.271 143.785C90.271 143.785 86.8745 141.605 81.5438 140.419C82.1156 138.607 83.9021 134.434 88.5674 133.155C90.518 132.62 92.6169 132.785 94.3546 133.852C95.4442 134.521 96.5811 135.613 97.4305 137.391C97.4305 137.391 100.158 136.456 103.087 137.097C106.542 137.854 108.75 141.338 108.231 144.974C107.792 148.051 106.44 152.106 102.473 153.76C100.334 154.652 97.8929 154.483 95.8759 153.323Z" fill="#E68D6C"/>
<path d="M70.397 139.598C70.397 139.598 95.3647 136.918 101.552 158.671C103.266 164.694 102.431 171.244 98.9693 176.389C95.7649 181.15 89.7764 185.605 78.7406 187.473C77.0187 187.765 75.2752 187.9 73.5318 187.856C70.46 187.781 65.3257 187.347 60.3539 185.521C51.1312 182.134 46.0591 171.893 48.5914 162.06C50.8428 153.318 56.4543 141.455 70.397 139.598Z" fill="#E68D6C"/>
<path d="M66.9026 180.191C66.9026 182.667 66.137 184.957 64.8344 186.821C63.371 186.498 61.8579 186.071 60.3556 185.523C54.2908 183.296 50.0224 178.108 48.5309 172.014C50.4774 170.07 53.1216 168.881 56.0367 168.881C62.0352 168.881 66.9026 173.948 66.9026 180.191Z" fill="#DB805E"/>
<path d="M100.496 173.67C97.6683 172.083 95.745 168.973 95.745 165.396C95.745 161.622 97.8903 158.362 100.984 156.879C101.188 157.456 101.377 158.056 101.555 158.673C102.979 163.676 102.641 169.048 100.496 173.67Z" fill="#DB805E"/>
<path d="M54.6297 150.071C55.5238 154.165 55.1103 157.264 54.4101 159.409C53.6187 161.819 51.5422 163.54 49.1167 163.894C44.12 164.62 40.6903 162.787 38.5392 160.833C36.2339 158.748 35.3017 155.41 36.122 152.346C37.8125 146.008 43.284 145.992 43.284 145.992C43.5425 142.694 45.0175 140.391 46.306 138.982C47.6426 137.515 49.4499 136.556 51.3806 136.364C56.7013 135.839 60.2835 140.843 61.5339 142.929C57.2705 145.909 54.6297 150.071 54.6297 150.071Z" fill="#E68D6C"/>
<path d="M55.8195 157.61C55.1475 161.81 51.7269 164.977 47.6326 165.077C47.4461 165.083 47.3392 165.077 47.3392 165.077V164.077C50.8029 164.089 53.8233 161.566 54.6619 158.033C56.2098 151.5 53.0552 146.744 52.8953 146.511C56.199 150.188 56.3109 154.577 55.8195 157.61Z" fill="#4D2326"/>
<path d="M95.8758 153.323C93.6236 152.029 90.909 149.334 90.2709 143.785C90.2709 143.785 86.8478 141.652 81.5172 140.467C82.0881 138.653 83.902 134.434 88.5673 133.155C90.5179 132.62 92.6168 132.785 94.3545 133.852C95.4441 134.521 96.581 135.613 97.4304 137.391C97.4304 137.391 100.158 136.456 103.087 137.097C106.542 137.854 108.75 141.338 108.231 144.974C107.792 148.051 106.44 152.106 102.473 153.76C100.334 154.652 97.8928 154.483 95.8758 153.323Z" fill="#E68D6C"/>
<path d="M99.9038 154.296C99.9038 154.296 96.6771 154.538 93.8465 151.799C92.8919 150.877 92.1751 149.726 91.6365 148.491C90.7598 146.486 89.6701 143.022 90.8484 140.015C90.8484 140.015 89.922 141.486 89.8209 143.943C89.6014 149.246 93.1952 154.023 98.201 155.035C98.9558 155.188 99.7804 155.276 100.679 155.273L99.9038 154.296Z" fill="#4D2326"/>
<path d="M89.9719 143.662C89.9719 143.662 87.7627 142.386 85.8942 141.756C85.8942 141.756 88.0577 141.795 90.1923 142.815L89.9719 143.662Z" fill="#4D2326"/>
<path d="M54.7455 149.914C54.7455 149.914 56.7409 147.06 58.3592 145.591C58.3592 145.591 56.3257 146.039 54.4066 149.041L54.7455 149.914Z" fill="#4D2326"/>
<path d="M107.444 143.445C107.781 146.814 105.724 149.798 102.851 150.109C99.9777 150.42 97.375 147.942 97.0385 144.572C96.7013 141.202 98.7571 138.219 101.631 137.907C104.505 137.597 107.107 140.076 107.444 143.445Z" fill="#F09573"/>
<path d="M47.0368 154.032C47.3732 157.395 45.4094 160.363 42.6508 160.662C39.8923 160.96 37.3832 158.477 37.0468 155.115C36.7112 151.752 38.6742 148.783 41.4336 148.484C44.1921 148.186 46.7004 150.669 47.0368 154.032Z" fill="#F09573"/>
<path d="M90.7259 131.705C89.9147 131.705 89.0935 131.817 88.2847 132.038C83.82 133.264 81.7186 136.88 80.8237 139.104C77.6608 138.479 74.8484 138.341 72.9798 138.34C71.3325 138.34 70.3257 138.446 70.2834 138.451C67.1735 138.864 64.3097 139.777 61.7343 141.172C58.0121 135.778 53.8366 135.171 52.1544 135.171C51.8644 135.171 51.5686 135.186 51.2761 135.214C49.1026 135.43 47.0517 136.487 45.5013 138.187C44.2683 139.536 42.7685 141.762 42.2895 144.928C39.9378 145.325 36.3656 147.118 35.0538 152.037C34.115 155.545 35.1972 159.34 37.8115 161.704C40.3347 163.995 43.4861 165.208 46.9241 165.21C46.0606 174.599 51.388 183.451 59.9851 186.609C64.9776 188.442 70.0928 188.927 73.5051 189.01C73.7256 189.015 73.946 189.018 74.1672 189.018C75.7292 189.018 77.3285 188.882 78.9186 188.613C88.7869 186.942 95.8378 183.052 99.8766 177.051C103.478 171.702 104.476 164.883 102.615 158.343C102.315 157.287 101.961 156.255 101.555 155.26C102.009 155.154 102.454 155.012 102.885 154.832C107.331 152.978 108.843 148.54 109.327 145.143C109.938 140.87 107.296 136.839 103.315 135.967C102.56 135.802 101.755 135.718 100.926 135.718C99.7249 135.718 98.6808 135.893 97.9856 136.051C97.1926 134.695 96.1643 133.624 94.918 132.858C93.6891 132.103 92.2398 131.705 90.7259 131.705ZM90.7259 132.858C91.9937 132.858 93.2483 133.172 94.3545 133.852C95.4442 134.522 96.5811 135.613 97.4304 137.391C97.4304 137.391 98.9435 136.872 100.926 136.872C101.604 136.872 102.339 136.934 103.087 137.097C106.542 137.854 108.75 141.338 108.231 144.973C107.792 148.051 106.44 152.106 102.473 153.76C101.654 154.102 100.791 154.285 99.9246 154.319C100.554 155.649 101.104 157.094 101.552 158.671C103.265 164.694 102.431 171.244 98.9692 176.389C95.764 181.15 89.7763 185.604 78.7405 187.473C77.2274 187.73 75.6986 187.864 74.1672 187.864C73.9551 187.864 73.743 187.862 73.5308 187.857C70.4599 187.781 65.3257 187.347 60.3538 185.521C51.7368 182.357 46.7451 173.209 48.1911 164.001C47.7594 164.039 47.3409 164.056 46.934 164.056C43.1016 164.056 40.3613 162.488 38.5391 160.833C36.2338 158.749 35.3016 155.41 36.1219 152.346C37.8124 146.008 43.2839 145.992 43.2839 145.992C43.5424 142.694 45.0174 140.391 46.3059 138.981C47.6425 137.515 49.4489 136.556 51.3813 136.364C51.6432 136.338 51.9009 136.325 52.1544 136.325C56.8595 136.326 60.0862 140.594 61.3855 142.687C63.9161 141.165 66.8934 140.065 70.3969 139.598C70.3969 139.598 71.3706 139.494 72.9798 139.494C75.0298 139.494 78.1107 139.663 81.5289 140.431C82.1114 138.6 83.9302 134.426 88.5673 133.155C89.275 132.961 90.0033 132.858 90.7259 132.858Z" fill="#4D2326"/>
<path d="M57.3492 154.316C58.225 155.405 59.9958 155.364 61.3043 154.223C62.6135 153.083 62.9648 151.276 62.089 150.187C61.2139 149.097 59.4423 149.139 58.1339 150.28C56.8246 151.42 56.4733 153.228 57.3492 154.316Z" fill="#4D2326"/>
<path d="M88.2632 146.273C88.0975 147.353 89.1607 148.427 90.6381 148.673C92.1156 148.918 93.4472 148.241 93.6121 147.16C93.7778 146.08 92.7147 145.006 91.2372 144.761C89.7606 144.516 88.429 145.192 88.2632 146.273Z" fill="#4D2326"/>
<path d="M92.8886 169.204C93.2913 174.174 88.7686 178.628 82.7883 179.152C76.808 179.677 71.634 176.073 71.2313 171.104C70.8294 166.134 75.3513 161.681 81.3315 161.156C87.3118 160.631 92.4867 164.235 92.8886 169.204Z" fill="#F5AC91"/>
<path d="M74.8317 169.09C74.8317 169.09 74.8275 169.115 74.8226 169.162C74.5798 171.288 76.489 172.977 78.4777 172.431C80.12 171.981 82.2869 171.043 83.858 169.098C83.858 169.098 85.8062 170.808 88.1653 170.882C90.0803 170.941 91.2876 168.729 90.285 167.03C90.2734 167.011 90.2618 166.991 90.2502 166.972C90.2502 166.972 91.5876 168.081 91.3713 169.62C91.2636 170.388 90.7573 171.025 90.0853 171.36C89.0312 171.884 86.9563 172.398 84.0975 170.668C84.0975 170.668 81.5097 173.221 78.0435 173.673C75.6918 173.981 73.8481 171.541 74.7588 169.264C74.782 169.207 74.806 169.149 74.8317 169.09Z" fill="#4D2326"/>
<path d="M89.618 163.03C89.5376 161.831 88.9948 160.331 86.9904 159.543C86.2404 159.249 85.4391 159.133 84.637 159.15C83.1728 159.182 80.1218 159.368 77.6234 160.292C77.6234 160.292 73.143 162.018 74.2393 166.429C74.2393 166.429 74.4605 167.424 75.3231 167.854C75.7557 168.07 76.2719 168.09 76.668 167.811C77.0376 167.55 77.4105 166.994 77.4262 165.808C77.4262 165.808 77.7983 167.019 78.8598 168.136C80.6446 170.016 83.4463 170.318 85.6587 169.021C86.7227 168.396 87.964 167.42 88.8548 165.959C89.3884 165.085 89.6876 164.064 89.618 163.03Z" fill="#4D2326"/>
<path d="M80.8203 162.775C80.8576 164.3 82.6789 165.489 84.8873 165.43C87.0956 165.371 88.8556 164.087 88.8183 162.561C88.781 161.035 86.9597 159.846 84.7505 159.905C82.5422 159.964 80.7822 161.249 80.8203 162.775Z" fill="#5E2B2F"/>
<path d="M71.9397 159.902C72.3027 163.538 70.1175 166.755 67.0574 167.086C63.998 167.417 61.2229 164.739 60.86 161.103C60.4962 157.467 62.6813 154.251 65.7415 153.919C68.8008 153.588 71.5759 156.267 71.9397 159.902Z" fill="#4D2326"/>
<path d="M69.5617 157.868C69.7026 159.281 68.7173 160.546 67.36 160.693C66.0019 160.84 64.7871 159.813 64.6462 158.401C64.5045 156.988 65.4906 155.723 66.8479 155.576C68.2052 155.429 69.42 156.455 69.5617 157.868Z" fill="white"/>
<path d="M94.2741 154.405C94.5658 157.323 92.8115 159.905 90.3563 160.171C87.9002 160.437 85.6728 158.286 85.3803 155.368C85.0894 152.45 86.8428 149.868 89.2989 149.602C91.755 149.336 93.9824 151.486 94.2741 154.405Z" fill="#4D2326"/>
<path d="M92.365 152.772C92.4794 153.905 91.6872 154.921 90.5984 155.039C89.5079 155.157 88.5334 154.333 88.4199 153.199C88.3064 152.065 89.0977 151.05 90.1874 150.932C91.277 150.814 92.2515 151.638 92.365 152.772Z" fill="white"/>
<path d="M62.62 140.962C62.62 140.962 62.3913 135.959 68.186 135.173C69.9833 134.928 71.7358 134.431 73.4064 133.7C74.3519 133.286 75.507 132.907 76.7607 132.768C79.5797 132.457 82.1585 134.461 82.7857 137.338L83.6069 141.071C84.129 143.461 81.7193 145.43 79.6386 144.284C79.6079 144.267 79.5781 144.25 79.5483 144.233C79.5483 144.233 79.6626 146.102 78.1876 147.065C77.8123 147.31 77.3789 147.438 76.9364 147.469C76.324 147.511 75.4274 147.418 74.8457 146.67C74.8457 146.67 74.1058 147.761 72.4559 148.157C71.1094 148.479 69.6899 147.787 69.0768 146.497C69.0693 146.481 69.0618 146.465 69.0544 146.448C68.9624 146.251 68.9019 146.041 68.8572 145.827C68.5862 144.529 67.5885 139.787 67.5885 139.787L62.62 140.962Z" fill="#FF9498"/>
<path d="M77.3375 131.583C77.1071 131.583 76.8743 131.596 76.6448 131.621C75.449 131.753 74.2144 132.095 72.9764 132.637C71.3879 133.331 69.7281 133.8 68.0435 134.028C62.6573 134.759 61.4169 138.919 61.513 141.016L61.576 142.392L62.8662 142.087L66.7442 141.17C67.0566 142.657 67.5877 145.18 67.7734 146.073C67.843 146.403 67.9358 146.691 68.0559 146.95L68.0849 147.013C68.7702 148.455 70.2245 149.389 71.7889 149.389C72.0972 149.389 72.4054 149.353 72.7046 149.281C73.6923 149.044 74.4215 148.605 74.9195 148.202C75.4267 148.485 76.0258 148.631 76.6945 148.631C76.8047 148.631 76.9099 148.628 77.0094 148.621C77.654 148.576 78.2647 148.377 78.7768 148.043C79.6991 147.441 80.2004 146.563 80.4499 145.744C80.6015 145.764 80.7548 145.773 80.9098 145.773C82.069 145.773 83.2018 145.198 83.9409 144.233C84.6801 143.27 84.9527 142.025 84.6884 140.815L83.8672 137.08C83.172 133.895 80.4258 131.583 77.3375 131.583ZM77.3375 132.737C79.9245 132.737 82.2016 134.659 82.7866 137.338L83.607 141.071C84.0238 142.979 82.5712 144.619 80.9098 144.619C80.4905 144.619 80.0579 144.515 79.6386 144.284C79.6088 144.267 79.579 144.25 79.5483 144.233C79.5483 144.233 79.6627 146.102 78.1869 147.066C77.8115 147.31 77.3789 147.438 76.9373 147.469C76.8602 147.475 76.779 147.477 76.6945 147.477C76.1053 147.477 75.3554 147.324 74.8458 146.669C74.8458 146.669 74.1066 147.761 72.456 148.157C72.2339 148.21 72.011 148.236 71.7889 148.236C70.6645 148.236 69.5889 147.575 69.0768 146.498C69.0694 146.481 69.0619 146.465 69.0544 146.448C68.9625 146.251 68.902 146.041 68.8572 145.827C68.5863 144.529 67.5886 139.786 67.5886 139.786L62.6201 140.962C62.6201 140.962 62.3914 135.959 68.1869 135.173C69.9825 134.928 71.7359 134.431 73.4056 133.7C74.3519 133.286 75.507 132.907 76.7616 132.768C76.9547 132.747 77.1469 132.737 77.3375 132.737Z" fill="#4D2326"/>
<path d="M74.1483 147.361C74.5742 147.039 74.7954 146.741 74.8402 146.681L73.5981 141.018C73.5475 140.787 73.3279 140.647 73.1058 140.699C72.8846 140.751 72.7487 140.977 72.7992 141.207L74.1483 147.361Z" fill="#4D2326"/>
<path d="M80.4623 144.575L79.3818 139.65C79.3312 139.42 79.1141 139.277 78.8937 139.33C78.6725 139.382 78.5324 139.609 78.583 139.839L79.5483 144.233C79.5748 144.248 79.6014 144.262 79.6254 144.278C79.9013 144.43 80.183 144.529 80.4623 144.575Z" fill="#4D2326"/>
<path d="M66.4327 138.329L66.7915 139.973L67.5903 139.786L67.2315 138.14C67.1809 137.911 66.9613 137.767 66.7409 137.819C66.5205 137.871 66.3821 138.099 66.4327 138.329Z" fill="#4D2326"/>
<path d="M191.945 97.2336C191.945 97.0151 191.828 96.796 191.595 96.7004L188.279 95.3428V95.3415L187.653 93.6857L186.974 91.8906C186.934 91.7823 186.867 91.7025 186.79 91.6424C186.78 91.6354 186.773 91.6246 186.763 91.6177C186.491 91.4359 186.086 91.5265 185.948 91.8906L184.644 95.3422L181.326 96.7004C181.095 96.796 180.977 97.0132 180.977 97.2336C180.976 97.4539 181.093 97.6736 181.328 97.7692L184.644 99.1268L185.948 102.58C186.131 103.065 186.792 103.065 186.974 102.58L188.279 99.1268L189.577 98.5962L191.597 97.7705C191.829 97.6749 191.947 97.4545 191.947 97.2336H191.945Z" fill="white"/>
<path d="M68.1347 39.0768C68.1347 38.8577 68.0179 38.6387 67.7859 38.5437L64.4688 37.1854V37.1848L63.8432 35.5283L63.1646 33.7332C63.1239 33.6256 63.0568 33.5452 62.9798 33.485C62.9698 33.478 62.9624 33.4673 62.9524 33.4603C62.6806 33.2786 62.2754 33.3691 62.1379 33.7332L60.8336 37.1848L57.5157 38.5437C57.2845 38.6387 57.1669 38.8565 57.1669 39.0768C57.166 39.2966 57.2829 39.5163 57.5174 39.6119L60.8336 40.9701L62.1379 44.4223C62.3218 44.9074 62.9814 44.9074 63.1646 44.4223L64.4688 40.9701L65.7665 40.4382L67.7867 39.6132C68.0187 39.5175 68.1364 39.2972 68.1364 39.0768H68.1347Z" fill="white"/>
<path d="M34.8682 115.269C34.8682 115.002 34.7256 114.735 34.4414 114.618L30.3919 112.96V112.959V112.959L29.627 110.937L28.7992 108.745C28.7495 108.613 28.6683 108.515 28.573 108.442C28.5614 108.432 28.5531 108.419 28.5407 108.412C28.2092 108.189 27.7137 108.3 27.5463 108.745L25.9537 112.959V112.959L21.9025 114.618C21.6191 114.734 21.4757 114.999 21.4757 115.269C21.4757 115.537 21.6182 115.806 21.9033 115.923L25.9528 117.58L27.5463 121.796C27.77 122.388 28.5755 122.388 28.7992 121.796L30.3919 117.58L31.9762 116.932L34.4431 115.924C34.7265 115.807 34.8698 115.538 34.8698 115.269H34.8682Z" fill="white"/>
<path d="M20.9768 104.795C20.976 104.626 20.8865 104.457 20.7075 104.384L18.1495 103.336V103.336L17.6664 102.059L17.1436 100.674C17.1121 100.591 17.0607 100.529 17.001 100.483C16.9936 100.477 16.9878 100.469 16.9803 100.464C16.7707 100.324 16.4583 100.393 16.3522 100.674L15.3462 103.336L12.7882 104.383C12.6092 104.457 12.5189 104.624 12.5189 104.795C12.5181 104.964 12.6084 105.134 12.7891 105.207L15.3462 106.255L16.3522 108.917C16.4939 109.291 17.0027 109.291 17.1436 108.917L18.1495 106.255L19.1497 105.845L20.7084 105.208C20.8865 105.135 20.9768 104.965 20.9768 104.795Z" fill="white"/>
<path d="M78.9576 90.096L91.9565 86.0891L79.4805 96.133L78.9576 90.096Z" fill="white"/>
<path d="M50.2071 93.478C54.3834 102.335 64.666 105.991 73.1744 101.643C81.6829 97.2955 85.1947 86.5925 81.0183 77.7352C76.842 68.8786 66.5594 65.2231 58.051 69.5707C49.5425 73.9176 46.0307 84.6213 50.2071 93.478Z" fill="white"/>
<path d="M65.5998 66.6174C62.804 66.6174 60.1043 67.2722 57.5761 68.5639C48.5481 73.1762 44.8085 84.5745 49.2392 93.9725C52.33 100.526 58.6086 104.596 65.6255 104.596C68.4222 104.596 71.1211 103.941 73.6492 102.65C76.2512 101.32 78.5316 99.3446 80.2527 96.9296L92.5936 86.9939C92.8612 86.7901 93.0361 86.4608 93.0361 86.0897C93.0361 85.485 92.5787 84.993 92.0044 84.969C91.9887 84.9677 91.9729 84.9677 91.9572 84.9677C91.9157 84.9677 91.8743 84.9702 91.8337 84.9753C91.7625 84.9835 91.6928 84.9987 91.6274 85.0215L83.7677 87.4435C84.1025 83.94 83.4968 80.446 81.9853 77.2413C78.8962 70.6889 72.6176 66.6181 65.5998 66.6174ZM65.5998 67.7388C71.9398 67.7388 78.0361 71.4114 81.0183 77.7359C82.7344 81.3736 83.1504 85.3242 82.4568 89.0177L91.9572 86.0897L79.4812 96.1336L79.4804 96.1292C77.8919 98.4018 75.7664 100.318 73.1744 101.643C70.7415 102.886 68.1645 103.474 65.6255 103.474C59.2856 103.474 53.1893 99.8024 50.2071 93.478C46.0307 84.6213 49.5425 73.9176 58.0509 69.5707C60.4838 68.3277 63.0609 67.7382 65.5998 67.7388Z" fill="#4D2326"/>
<path d="M82.5232 88.6346C82.5232 88.6346 82.1454 90.9249 81.2372 92.6067C81.2372 92.6067 83.2499 91.0635 83.893 87.6898L82.5232 88.6346Z" fill="#4D2326"/>
<path d="M75.7599 82.609C75.184 77.4174 68.7596 75.9325 66.2513 80.4606C65.6746 81.5016 65.4235 82.3754 65.4235 82.3754C65.4235 82.3754 65.1724 81.5016 64.5948 80.4606C62.0865 75.9325 55.6629 77.4174 55.0862 82.609C54.6702 86.3538 56.2107 91.6202 65.4235 96.133C74.6363 91.6202 76.1759 86.3538 75.7599 82.609Z" fill="#DB574F"/>
<path d="M76.915 87.2454H69.7912L67.5944 90.9737L65.0571 84.6752L62.959 89.3989L61.7393 86.4064H53.931" stroke="white" stroke-width="2.38667" stroke-miterlimit="10" stroke-linecap="round" stroke-linejoin="round"/>
<path d="M21.5884 147.088L27.7095 148.65L27.8081 148.299C28.2672 146.64 28.8754 145.085 29.5681 143.816L29.7214 143.545L26.4972 140.696C26.3613 140.583 26.2768 140.413 26.2652 140.22C26.2494 140.034 26.3017 139.848 26.4177 139.711C26.537 139.568 26.6994 139.479 26.8784 139.463C27.0582 139.447 27.2339 139.508 27.3747 139.626L30.4697 142.365L30.7025 142.074C31.126 141.538 31.5544 141.118 31.9845 140.825C32.132 140.718 32.3134 140.685 32.4874 140.719C32.6681 140.757 32.8172 140.863 32.9192 141.016C33.0244 141.182 33.06 141.389 33.0136 141.58C32.973 141.747 32.8761 141.897 32.7311 141.997C32.4104 142.221 32.0739 142.558 31.7276 142.995L31.5088 143.276L33.5183 145.054C33.7188 145.229 33.8008 145.502 33.7428 145.755C33.7196 145.837 33.6856 145.921 33.6517 145.978L33.5937 146.047C33.4802 146.194 33.3177 146.282 33.1421 146.292C32.9896 146.308 32.8504 146.27 32.7286 146.191C32.6979 146.171 32.6673 146.152 32.6465 146.129L30.7622 144.467L30.5509 144.876C29.9965 145.971 29.5159 147.229 29.1298 148.61L29.0254 148.982L30.8343 149.441C31.1948 149.534 31.421 149.919 31.3323 150.293C31.3149 150.379 31.2793 150.452 31.2337 150.529C31.1782 150.608 31.1144 150.672 31.0282 150.731C30.8716 150.823 30.6909 150.855 30.5145 150.812L28.6989 150.349L28.6285 150.736C28.3608 152.13 28.2307 153.51 28.2307 154.727V155.194L30.6553 154.623C30.8277 154.577 31.0017 154.61 31.1608 154.713C31.2975 154.811 31.4193 154.96 31.4574 155.152C31.4864 155.259 31.484 155.363 31.4574 155.478C31.4376 155.553 31.4036 155.637 31.3621 155.707C31.2627 155.845 31.1144 155.952 30.9495 155.987L28.3592 156.608L28.4329 156.964C28.5315 157.452 28.6658 157.864 28.8191 158.202C28.8978 158.368 28.9102 158.561 28.8547 158.737C28.8331 158.802 28.7992 158.859 28.7685 158.91C28.6972 159.013 28.6102 159.089 28.5083 159.146C28.3426 159.224 28.1578 159.236 27.9921 159.174C27.8172 159.113 27.6797 158.988 27.6051 158.816C27.4071 158.397 27.2438 157.877 27.1228 157.287L27.0491 156.914L23.0907 157.855C22.7335 157.941 22.3673 157.705 22.2819 157.323C22.2032 156.945 22.4311 156.564 22.794 156.482L26.9082 155.508L26.8966 155.201C26.851 153.735 26.9944 152.065 27.3258 150.366L27.393 150.013L21.2685 148.459C21.0953 148.408 20.9445 148.292 20.8517 148.136C20.7531 147.974 20.7274 147.791 20.7705 147.607C20.8583 147.231 21.2287 146.996 21.5884 147.088Z" fill="white"/>
</svg>
