<svg width="39" height="39" viewBox="0 0 39 39" fill="none" xmlns="http://www.w3.org/2000/svg">
<path d="M19.5784 0C8.87789 0 0.156784 8.6775 0.156784 19.3245C0.156784 22.737 1.05829 26.052 2.74372 28.977L0 39L10.2889 36.309C13.1307 37.8495 16.3251 38.6685 19.5784 38.6685C30.2789 38.6685 39 29.991 39 19.344C39 14.1765 36.9814 9.321 33.3166 5.6745C29.6518 2.0085 24.7719 0 19.5784 0ZM19.598 3.2565C23.9095 3.2565 27.9467 4.9335 31.004 7.9755C34.0417 11.0175 35.7271 15.054 35.7271 19.344C35.7271 28.197 28.4759 35.3925 19.5784 35.3925C16.6779 35.3925 13.8362 34.632 11.3668 33.15L10.7789 32.8185L4.66432 34.4175L6.29095 28.4895L5.89899 27.8655C4.29196 25.35 3.42965 22.3665 3.42965 19.3245C3.44925 10.4715 10.6809 3.2565 19.598 3.2565ZM12.6995 10.3935C12.3859 10.3935 11.8568 10.5105 11.406 10.998C10.9749 11.4855 9.701 12.675 9.701 15.0345C9.701 17.4135 11.4452 19.695 11.6608 20.0265C11.9352 20.358 15.11 25.233 19.9899 27.3C21.1462 27.8265 22.0477 28.119 22.7533 28.3335C23.9095 28.704 24.9678 28.6455 25.8106 28.5285C26.7513 28.392 28.6719 27.3585 29.0834 26.2275C29.495 25.0965 29.495 24.141 29.3774 23.9265C29.2402 23.7315 28.9266 23.6145 28.4367 23.4C27.9467 23.127 25.5558 21.957 25.1246 21.801C24.6739 21.645 24.3995 21.567 24.0271 22.035C23.7136 22.5225 22.7729 23.6145 22.4985 23.9265C22.2045 24.258 21.9301 24.297 21.4598 24.063C20.9502 23.8095 19.3824 23.3025 17.5402 21.6645C16.0899 20.3775 15.1296 18.798 14.8357 18.3105C14.6005 17.8425 14.8161 17.55 15.0513 17.3355C15.2668 17.121 15.5804 16.77 15.7764 16.4775C16.0312 16.2045 16.1095 15.99 16.2663 15.678C16.4231 15.3465 16.3447 15.0735 16.2271 14.8395C16.1095 14.625 15.1296 12.207 14.7181 11.2515C14.3261 10.3155 13.9342 10.4325 13.6206 10.413C13.3462 10.413 13.0327 10.3935 12.6995 10.3935Z" fill="white"/>
</svg>
